<svg width="100" height="73" viewBox="0 0 100 73" fill="none" xmlns="http://www.w3.org/2000/svg">
<path d="M58.2624 32.5473H67.0916C67.2964 32.5473 67.4929 32.4662 67.6381 32.3218C67.7834 32.1774 67.8655 31.9813 67.8666 31.7765V23.914C67.8666 23.7084 67.7849 23.5113 67.6396 23.366C67.4943 23.2206 67.2971 23.139 67.0916 23.139H58.2624C58.058 23.139 57.8619 23.2202 57.7174 23.3648C57.5728 23.5093 57.4916 23.7054 57.4916 23.9098V31.7765C57.4916 32.2015 57.8374 32.5473 58.2624 32.5473M45.9541 9.92233H54.7791C54.9847 9.92233 55.1818 9.84068 55.3271 9.69534C55.4725 9.55 55.5541 9.35287 55.5541 9.14733V1.28067C55.553 1.07585 55.4709 0.879792 55.3256 0.735351C55.1804 0.590911 54.9839 0.509831 54.7791 0.509834H45.9541C45.7497 0.509834 45.5536 0.591047 45.4091 0.735607C45.2645 0.880166 45.1833 1.07623 45.1833 1.28067V9.14733C45.1833 9.57233 45.5249 9.91816 45.9541 9.91816M45.9541 21.2348H54.7791C54.9843 21.2337 55.1808 21.1517 55.3259 21.0066C55.471 20.8615 55.553 20.665 55.5541 20.4598V12.5973C55.553 12.3925 55.4709 12.1965 55.3256 12.052C55.1804 11.9076 54.9839 11.8265 54.7791 11.8265H45.9541C45.7497 11.8265 45.5536 11.9077 45.4091 12.0523C45.2645 12.1968 45.1833 12.3929 45.1833 12.5973V20.4598C45.1833 20.8848 45.5249 21.2307 45.9541 21.2348ZM33.7458 21.2348H42.5791C42.7832 21.2326 42.9782 21.15 43.1217 21.0049C43.2653 20.8598 43.3458 20.6639 43.3458 20.4598V12.5973C43.3458 12.3929 43.2646 12.1968 43.12 12.0523C42.9755 11.9077 42.7794 11.8265 42.575 11.8265H33.75C33.5455 11.8265 33.3495 11.9077 33.2049 12.0523C33.0603 12.1968 32.9791 12.3929 32.9791 12.5973V20.4598C32.9791 20.8848 33.325 21.2307 33.75 21.2348M21.4 21.2348H30.2291C30.4339 21.2337 30.63 21.1516 30.7744 21.0064C30.9189 20.8611 31 20.6646 31 20.4598V12.5973C31 12.3929 30.9187 12.1968 30.7742 12.0523C30.6296 11.9077 30.4336 11.8265 30.2291 11.8265H21.4C21.1951 11.8265 20.9986 11.9076 20.8534 12.052C20.7082 12.1965 20.6261 12.3925 20.625 12.5973V20.4598C20.625 20.8848 20.975 21.2307 21.4 21.2348M45.9541 32.5473H54.7791C54.9839 32.5473 55.1804 32.4662 55.3256 32.3218C55.4709 32.1774 55.553 31.9813 55.5541 31.7765V23.914C55.5541 23.7084 55.4725 23.5113 55.3271 23.366C55.1818 23.2206 54.9847 23.139 54.7791 23.139H45.9541C45.7497 23.139 45.5536 23.2202 45.4091 23.3648C45.2645 23.5093 45.1833 23.7054 45.1833 23.9098V31.7765C45.1833 32.2015 45.5249 32.5473 45.9541 32.5473M33.7458 32.5473H42.5791C42.7828 32.5462 42.9778 32.4645 43.1215 32.3201C43.2651 32.1756 43.3458 31.9802 43.3458 31.7765V23.914C43.3463 23.8128 43.3269 23.7124 43.2887 23.6187C43.2505 23.525 43.1942 23.4397 43.123 23.3677C43.0518 23.2957 42.9671 23.2385 42.8738 23.1993C42.7805 23.16 42.6803 23.1395 42.5791 23.139H33.7458C33.5421 23.1401 33.3471 23.2218 33.2034 23.3662C33.0598 23.5107 32.9791 23.7061 32.9791 23.9098V31.7765C32.9791 32.2015 33.325 32.5473 33.75 32.5473M21.4 32.5473H30.2291C30.4336 32.5473 30.6296 32.4661 30.7742 32.3215C30.9187 32.177 31 31.9809 31 31.7765V23.914C31.0005 23.8128 30.9811 23.7124 30.9429 23.6187C30.9046 23.525 30.8483 23.4397 30.7771 23.3677C30.7059 23.2957 30.6213 23.2385 30.528 23.1993C30.4346 23.16 30.3345 23.1395 30.2333 23.139H21.4C21.1944 23.139 20.9973 23.2206 20.852 23.366C20.7066 23.5113 20.625 23.7084 20.625 23.914V31.7765C20.625 32.2015 20.975 32.5473 21.4 32.5473M9.23331 32.5473H18.0666C18.2703 32.5462 18.4653 32.4645 18.609 32.3201C18.7527 32.1756 18.8333 31.9802 18.8333 31.7765V23.914C18.8338 23.8128 18.8145 23.7124 18.7762 23.6187C18.738 23.525 18.6817 23.4397 18.6105 23.3677C18.5393 23.2957 18.4546 23.2385 18.3613 23.1993C18.268 23.16 18.1679 23.1395 18.0666 23.139H9.23331C9.02959 23.1401 8.8346 23.2218 8.69094 23.3662C8.54728 23.5107 8.46664 23.7061 8.46664 23.9098V31.7765C8.46664 32.2015 8.80831 32.5473 9.23747 32.5473M99.0124 27.5973C98.7416 27.3848 96.2124 25.4723 90.8707 25.4723C89.4624 25.4765 88.0541 25.5973 86.6624 25.8348C85.6291 18.7515 79.7749 15.2932 79.5124 15.1432L78.0791 14.314L77.1374 15.6765C75.9541 17.5015 75.0958 19.5182 74.5874 21.6348C73.6291 25.6765 74.2124 29.4765 76.2666 32.7223C73.7874 34.1056 69.8083 34.4431 68.9999 34.4723H3.12914C2.30212 34.4734 1.50916 34.8019 0.923588 35.3859C0.338014 35.9699 0.00744902 36.762 0.00414605 37.589C-0.0730135 43.3591 0.904123 49.0949 2.88748 54.514C5.15831 60.464 8.53331 64.8473 12.9291 67.5306C17.8458 70.5431 25.8458 72.2681 34.9083 72.2681C39.0041 72.2806 43.0874 71.9098 47.1166 71.1598C52.7118 70.1319 58.0957 68.1758 63.0458 65.3723C67.1291 63.0098 70.7958 60.0056 73.9208 56.4723C79.1374 50.564 82.2458 43.9848 84.5583 38.139H85.4791C91.1957 38.139 94.7082 35.8515 96.6457 33.9348C97.9332 32.714 98.9374 31.2265 99.5916 29.5765L99.9999 28.3765L99.0124 27.5973Z" fill="#CACACA"/>
</svg>
