<svg width="122" height="122" viewBox="0 0 122 122" fill="none" xmlns="http://www.w3.org/2000/svg">
<g clip-path="url(#clip0_22_129)">
<path d="M119.389 55.953L66.5539 3.13658C63.5216 0.0853334 58.5799 0.0853334 55.5248 3.13658L44.5751 14.1052L58.4967 28.0078C61.7445 26.9265 65.4499 27.6524 68.0096 30.2348C70.6109 32.8361 71.3369 36.5755 70.2366 39.8045L83.6288 53.2156C86.8767 52.0926 90.6198 52.8223 93.1985 55.4199C96.8433 59.042 96.8433 64.9101 93.1985 68.5361C89.5763 72.1582 83.7271 72.1582 80.1012 68.5361C77.3826 65.8175 76.6945 61.8021 78.0519 58.4749L65.5066 45.9901V78.8959C66.3913 79.3307 67.2383 79.9206 67.968 80.6503C71.5713 84.2952 71.5713 90.1405 67.968 93.7665C64.3458 97.3887 58.4551 97.3887 54.814 93.7665C51.1918 90.1443 51.1918 84.2952 54.814 80.6503C55.7403 79.7429 56.765 79.0736 57.8653 78.6237V45.4041C56.7839 44.9314 55.7366 44.2811 54.8329 43.3775C52.0955 40.64 51.4263 36.6247 52.8441 33.2558L39.1759 19.512L2.94283 55.7261C-0.0706044 58.7585 -0.0706044 63.7002 2.94283 66.7552L55.7782 119.572C58.8294 122.623 63.7522 122.623 66.8073 119.572L119.385 66.9934C122.437 63.9611 122.437 59.0194 119.385 55.9643L119.389 55.953Z" fill="#CACACA"/>
</g>
<defs>
<clipPath id="clip0_22_129">
<rect width="120.991" height="120.991" fill="white" transform="translate(0.681808 0.852905)"/>
</clipPath>
</defs>
</svg>
