<svg width="58" height="122" viewBox="0 0 58 122" fill="none" xmlns="http://www.w3.org/2000/svg">
<path d="M27.3068 46.0472C27.2574 34.4678 27.1463 10.9139 26.5044 0.630737C26.3069 0.852943 26.1464 1.05046 25.9242 1.29735C22.122 4.27245 2.56788 20.654 1.0001 53.9355C-0.271416 80.3286 16.8508 97.6483 23.9984 103.71C25.7637 96.0929 28.0228 76.4029 27.4179 56.5279C27.3315 55.0712 27.3315 51.2937 27.3068 46.0472Z" fill="#CACACA"/>
<path d="M29.7017 104.401C29.3437 106.03 28.924 107.598 28.4919 108.598L27.8624 109.845C28.887 114.869 28.7388 120.486 28.7388 120.486L32.1337 121.622C32.1337 121.622 31.4423 112.66 32.4052 108.327C32.4546 108.129 32.4917 107.969 32.541 107.771C31.6028 106.907 30.3684 105.537 29.7017 104.401Z" fill="#CACACA"/>
<path d="M56.5886 45.2203C49.9101 15.9014 34.1952 6.28484 32.5163 2.61845C32.4669 2.56907 32.4052 2.48265 32.3805 2.39624C32.7632 9.95124 32.9854 23.333 33.0965 46.0227V46.0721C33.1212 51.0347 33.1212 54.985 33.1829 56.3306C33.5656 69.4284 32.7632 81.0695 32.0225 88.5134C32.1089 95.8462 34.7013 102.241 36.2197 103.327C36.8246 102.833 37.5406 102.228 38.3184 101.512C38.4048 101.463 38.4541 101.426 38.4541 101.426C38.4541 101.401 38.4541 101.401 38.4541 101.377C46.4412 94.0315 61.7734 75.5267 56.5886 45.2203Z" fill="#CACACA"/>
</svg>
