<svg width="122" height="122" viewBox="0 0 122 122" fill="none" xmlns="http://www.w3.org/2000/svg">
<path d="M102.366 31.3677L65.6358 9.33884C64.3165 8.58671 62.824 8.19116 61.3054 8.19116C59.7867 8.19116 58.2943 8.58671 56.975 9.33884L20.2428 31.3654C18.9191 32.1766 17.827 33.3154 17.0719 34.672C16.3169 36.0285 15.9244 37.5568 15.9325 39.1093V83.1033C15.9246 84.6567 16.317 86.186 17.072 87.5436C17.827 88.9012 18.919 90.0414 20.2428 90.8543L29.8748 96.6061L29.9292 96.6368C34.7925 99.1251 36.6546 99.1251 38.8121 99.1251C46.4072 99.1251 51.1263 94.2099 51.1263 86.2958V43.6394C51.1307 43.1068 50.9237 42.5943 50.5507 42.2142C50.1776 41.8341 49.6691 41.6174 49.1365 41.6118H43.8479C43.3154 41.6174 42.8068 41.8341 42.4338 42.2142C42.0608 42.5943 41.8538 43.1068 41.8582 43.6394V86.2958C41.8774 86.9065 41.7385 87.5118 41.4549 88.0529C41.1712 88.5941 40.7526 89.0528 40.2394 89.3844C38.8452 90.2351 36.82 90.0555 34.5349 88.8764L25.3046 83.3207C25.2693 83.2966 25.2404 83.2641 25.2206 83.2262C25.2008 83.1883 25.1907 83.146 25.1912 83.1033V39.7308C25.1927 39.6809 25.2061 39.6322 25.2304 39.5886C25.2547 39.545 25.289 39.5079 25.3306 39.4803L61.212 17.5034C61.2388 17.4901 61.2683 17.4831 61.2983 17.4831C61.3282 17.4831 61.3577 17.4901 61.3845 17.5034L97.2872 39.4803C97.3281 39.5101 97.3612 39.5492 97.3838 39.5945C97.4064 39.6397 97.4179 39.6897 97.4172 39.7402V83.1033C97.4181 83.1481 97.409 83.1925 97.3906 83.2334C97.3722 83.2743 97.345 83.3105 97.3109 83.3396L61.3774 104.761C61.3162 104.782 61.2496 104.782 61.1884 104.761L52.0124 99.3118C51.74 99.1338 51.4253 99.031 51.1003 99.014C50.7754 98.997 50.4516 99.0663 50.1621 99.215L50.0818 99.2622C47.5485 100.763 46.868 101.153 44.519 102.008C44.1362 102.148 43.2359 102.481 43.1579 103.372C43.0799 104.263 43.9353 104.896 44.6963 105.338L56.9608 112.869C58.2676 113.652 59.762 114.066 61.2853 114.067H61.4223C62.9075 114.044 64.3605 113.631 65.6358 112.869L102.366 90.8614C103.689 90.046 104.78 88.9043 105.535 87.5457C106.29 86.1872 106.683 84.6574 106.676 83.1033V39.1093C106.683 37.5572 106.291 36.0295 105.536 34.6735C104.781 33.3174 103.689 32.1789 102.366 31.3677Z" fill="#CACACA"/>
<path d="M73.564 75.7894C64.752 75.7894 62.8733 73.3271 62.3156 69.3523C62.2528 68.8791 62.0221 68.4441 61.6656 68.1266C61.3091 67.8091 60.8504 67.6303 60.3731 67.6225H55.6942C55.1668 67.6337 54.6654 67.8533 54.2996 68.2333C53.9338 68.6133 53.7334 69.1227 53.7422 69.6501C53.7422 73.0955 54.9522 84.3415 73.5734 84.3415C79.3347 84.3415 84.1271 82.9945 87.4283 80.4447C90.7296 77.8949 92.4972 74.1849 92.4972 69.7635C92.4972 60.89 86.7076 58.4607 75.3056 56.8727C63.7146 55.2611 63.7146 54.4411 63.7146 52.6451C63.7146 51.3525 63.7146 48.3254 72.0941 48.3254C78.0563 48.3254 81.2488 49.0792 82.2697 53.0516C82.3601 53.492 82.5982 53.8883 82.9446 54.175C83.2909 54.4616 83.7248 54.6213 84.1743 54.6278H88.8698C89.1466 54.625 89.4195 54.5633 89.6705 54.4468C89.9216 54.3303 90.1448 54.1616 90.3255 53.9519C90.6865 53.5305 90.8666 52.9836 90.8265 52.4301C90.2192 44.0292 84.0775 39.7686 72.1012 39.7686C61.2168 39.7686 54.7206 44.672 54.7206 52.8838C54.7206 61.8872 61.4531 64.4323 71.5672 65.4863C83.3827 66.708 83.3827 68.4898 83.3827 70.0636C83.3898 72.5165 82.3713 75.7894 73.564 75.7894Z" fill="#CACACA"/>
</svg>
