<svg width="122" height="122" viewBox="0 0 122 122" fill="none" xmlns="http://www.w3.org/2000/svg">
<g clip-path="url(#clip0_19_85)">
<path d="M118.444 1.57489H38.9233V41.4462H78.0514C79.4454 41.4462 80.5763 42.5771 80.5763 43.971V82.5591H120.969V4.10435C120.97 3.43392 120.705 2.79053 120.231 2.31603C119.758 1.84153 119.115 1.57489 118.444 1.57489Z" fill="#CACACA"/>
<path opacity="0.405" d="M38.9186 1.57489V41.4462H1.61372C1.1011 41.4453 0.639731 41.135 0.445517 40.6606C0.251304 40.1862 0.362665 39.6415 0.727488 39.2814L38.9186 1.57489ZM82.7272 120.307C82.364 120.664 81.8224 120.768 81.3528 120.572C80.8831 120.375 80.5771 119.916 80.5762 119.407V82.5591H120.969L82.7272 120.303V120.307Z" fill="#CACACA"/>
<path opacity="0.405" d="M38.9186 41.4463H79.3161C80.0085 41.4463 80.5763 42.0094 80.5763 42.7064V82.5592H41.4481C40.0537 82.5592 38.9233 81.4288 38.9233 80.0344V41.4463H38.9186Z" fill="#CACACA"/>
</g>
<defs>
<clipPath id="clip0_19_85">
<rect width="120.991" height="120.991" fill="white" transform="translate(0.351196 0.6297)"/>
</clipPath>
</defs>
</svg>
