<svg width="122" height="122" viewBox="0 0 122 122" fill="none" xmlns="http://www.w3.org/2000/svg">
<path d="M58.4493 2.22641C54.5461 2.9209 50.5715 4.71641 48.3441 6.82407C44.3453 10.5361 43.2201 16.4259 44.274 27.9673C44.6805 32.4923 44.7289 38.8141 44.3695 41.0174C44.0828 42.8855 43.7706 43.3876 40.6817 47.2436C33.6183 56.0796 32.6358 57.7795 29.4271 66.4001C28.4217 69.1055 26.9371 72.6977 26.1471 74.3976C24.7823 77.247 24.6625 77.6305 24.5669 79.4744C24.4955 80.6238 24.5669 81.7732 24.7351 82.2282C24.9989 82.994 24.9747 83.0424 23.9692 83.9281C23.3703 84.4072 22.4605 85.5808 21.91 86.5137C20.3056 89.1718 18.7727 90.1059 13.9366 91.3025C10.728 92.0926 10.5368 92.1882 9.57854 93.1936C8.5973 94.199 8.45332 96.0429 9.17201 98.3418C9.93788 100.808 9.8423 102.316 8.71708 105.765C7.61606 109.117 7.59186 109.572 8.21376 110.625C9.14781 112.109 11.9016 113.21 16.4992 113.905C22.8452 114.886 23.922 115.126 30.1482 117.161C39.5589 120.25 41.8808 120.585 44.8027 119.316C45.9763 118.813 48.2267 116.777 48.2267 116.227C48.2267 115.892 48.753 115.772 53.2067 115.077C56.9187 114.527 58.2109 114.431 63.5515 114.431C68.8194 114.407 70.1116 114.48 73.0819 114.957C74.9742 115.268 76.6742 115.581 76.8653 115.652C77.0565 115.723 77.3929 116.107 77.584 116.49C78.2071 117.688 79.8587 119.316 81.1521 119.986C82.2531 120.585 82.5882 120.632 85.1036 120.632C87.3783 120.632 88.0727 120.536 89.1738 120.081C90.4188 119.578 90.9693 119.219 94.1066 116.633C95.9505 115.124 100.453 112.467 106.511 109.354C111.97 106.505 113.334 105.5 113.982 103.871C114.844 101.572 114.006 100.088 110.988 98.6515C109.863 98.101 108.474 97.2383 107.9 96.712C106.367 95.3 105.936 94.2692 105.721 91.5638C105.529 89.0738 104.93 87.5167 103.566 85.9849L102.871 85.1707L103.35 83.2796C104.069 80.5742 104.116 73.2228 103.47 71.0679C101.909 66.0637 97.5996 58.9277 89.0516 47.3622C86.7055 44.2019 84.5023 40.969 84.1188 40.1789C82.9451 37.6889 82.466 35.3187 82.2265 30.4815C81.6517 19.85 81.0528 16.5457 78.7298 11.8283C77.5562 9.40966 77.1497 8.83494 75.3058 7.01524C73.653 5.3625 72.84 4.7406 71.2114 3.95053C70.0862 3.40002 68.529 2.77692 67.739 2.56155C66.0887 2.10663 60.269 1.89127 58.4493 2.22641ZM67.5962 17.6951C72.2895 19.0841 73.6542 26.2915 69.8708 29.7398C68.9126 30.6255 68.7928 30.698 68.1225 30.4585C67.7148 30.3145 67.3808 30.1717 67.3808 30.1233C67.3808 30.0749 67.6918 29.7168 68.0753 29.3333C69.9664 27.4652 69.4159 23.8971 67.0699 22.7489C66.327 22.3654 66.0645 22.3424 65.3458 22.5807C63.6217 23.1554 62.5436 25.3103 63.0227 27.3224C63.1425 27.9443 63.2623 28.4718 63.2381 28.4718C63.2139 28.496 62.6392 28.3036 61.9447 28.0411C60.8909 27.6345 60.6513 27.418 60.4118 26.6763C60.2448 26.1972 60.1008 25.0962 60.125 24.2105C60.125 21.2414 61.9931 18.4634 64.5073 17.6733C65.9205 17.2402 66.1116 17.2402 67.5962 17.6951ZM52.2957 18.9873C53.5165 19.6092 54.4033 20.7828 54.9538 22.6025C55.7439 25.1409 55.5527 26.8408 54.3791 27.4398C53.9484 27.6551 53.3979 28.0145 53.1099 28.2056C52.6308 28.565 52.6308 28.5408 52.7264 27.1518C52.8462 25.3805 52.2001 23.7519 51.0507 23.0575C49.9968 22.4114 49.5661 22.4585 48.6805 23.2486C48.0344 23.8233 47.8904 24.1343 47.7948 25.3079C47.6036 27.6067 48.9442 29.9769 50.453 30.0011C50.9321 30.0253 50.8837 30.0967 50.142 30.7198C49.6871 31.1276 49.208 31.4385 49.064 31.4385C48.5849 31.4385 47.0531 29.666 46.5498 28.5178C45.0652 25.1421 46.2147 20.4247 48.8728 19.0115C50.0452 18.3896 51.1221 18.3896 52.2957 18.9873ZM59.8625 30.0979C67.7402 32.7803 69.8479 34.0011 68.6984 35.2703C68.2677 35.7494 60.7251 39.9877 58.6659 40.8976C57.9242 41.2327 56.8945 41.4965 56.4154 41.4965C54.4517 41.4965 48.5619 37.0186 48.753 35.6538C48.8014 35.2473 49.6871 34.4088 51.8177 32.7561C56.2472 29.3079 56.8933 29.0925 59.8625 30.0979ZM71.8829 38.2636C72.5532 39.1251 75.9059 45.7578 78.0365 50.4753C81.7243 58.6409 84.1659 64.9143 85.244 68.9845C86.0824 72.1932 86.2736 76.9578 85.7231 80.717C85.1484 84.6686 85.2682 84.4762 83.1617 84.5004C81.342 84.5004 80.2882 84.9069 79.9772 85.7212C79.7135 86.4157 79.3553 91.611 79.3553 94.9637V98.2922L77.3675 100.232C74.0148 103.56 70.2798 105.786 66.4008 106.84C63.4075 107.654 60.534 107.941 55.2188 107.941H50.0948L48.2013 105.909C47.1475 104.783 45.9751 103.49 45.5915 103.011L44.8729 102.125L45.9981 101.575C48.0815 100.545 48.776 98.5813 47.7694 96.6176C47.1463 95.3726 45.6145 94.0309 41.2564 90.7508C36.7544 87.3981 35.1028 85.9378 34.1204 84.3818C31.6788 80.5742 32.4217 72.6965 35.7731 66.878C37.1863 64.4122 37.5214 63.6209 39.5323 58.2574C41.3762 53.3004 41.8311 52.3663 43.3157 50.4753C45.5661 47.5775 47.41 42.6689 47.2189 40.0833L47.1475 38.9339L48.5849 40.2503C51.698 43.0996 54.8111 44.6326 56.6538 44.2491C57.779 44.0095 60.4614 42.7403 64.5799 40.5141C70.039 37.5207 71.0687 37.2098 71.8829 38.2636ZM28.8536 86.7048C30.5536 87.8059 32.6854 90.2729 34.8161 93.7211C38.1445 99.0605 40.4906 102.437 41.9037 104.042C44.4179 106.867 45.5915 109.022 45.5915 110.89C45.5915 112.734 43.7718 115.272 41.6642 116.373C40.2752 117.092 36.0611 116.134 29.5239 113.619C24.9505 111.847 24.9263 111.824 19.3716 110.937C11.1345 109.621 11.1345 109.621 12.5235 104.999C13.5047 101.766 13.5773 101 13.1696 98.9407C12.7618 97.0254 12.6904 96.1155 12.93 95.4924C13.1696 94.8693 14.6541 94.2716 17.6946 93.6013C22.0999 92.5959 22.5318 92.3079 24.3987 88.9081C26.0515 85.8422 26.8657 85.4586 28.8536 86.7048ZM85.7473 90.2245C85.9155 91.4695 86.2506 92.6431 86.5858 93.2408C87.711 95.2758 90.4889 96.0429 93.7932 95.2759C96.9305 94.5342 99.0612 93.0496 100.474 90.6068C101.097 89.5288 101.264 89.5058 101.935 90.3914C102.246 90.8222 102.438 91.6364 102.581 93.121C102.892 96.833 103.73 98.1022 106.891 99.8021C109.021 100.976 110.243 102.005 110.243 102.676C110.243 103.346 109.094 104.065 104.376 106.435C97.9589 109.644 96.6897 110.409 94.2481 112.541C90.6559 115.677 87.9022 117.115 85.9627 116.851C84.6221 116.66 83.2089 115.582 82.4902 114.169C81.4848 112.253 81.532 110.385 82.61 105.166L83.5441 100.759V94.7011C83.5441 88.1398 83.5441 88.1882 84.8604 88.1882C85.4351 88.1894 85.4835 88.285 85.7473 90.2245Z" fill="#CACACA"/>
</svg>
