<svg width="122" height="122" viewBox="0 0 122 122" fill="none" xmlns="http://www.w3.org/2000/svg">
<g clip-path="url(#clip0_19_52)">
<path d="M72.055 18.3649C69.8561 14.9039 70.5593 12.6215 71.7729 10.2652C72.8592 8.15598 73.3029 4.49043 69.4646 1.60561C72.9985 0.304892 78.5752 2.60469 78.6713 6.81752C76.6205 9.6392 71.019 10.7604 72.055 18.3649V18.3649ZM97.428 96.138C95.7121 101.699 96.4946 104.659 89.0327 116.205C102.226 107.299 108.45 95.8001 110.505 82.7493C111.794 88.1913 111.916 93.1277 111.41 97.7921C122.342 83.399 129.833 54.3751 104.637 25.1999C103.624 38.096 91.1514 48.2501 76.7675 44.2685C101.43 41.5497 103.011 10.1891 81.8234 2.9476C82.2372 11.6723 70.3334 8.81534 73.8341 20.4871C61.7094 13.6273 35.2189 12.2174 24.6877 22.6248C19.2586 27.9901 15.5528 32.4273 8.76772 32.7204C3.16534 32.9624 -4.23246 42.0532 5.39281 46.7026C6.31214 50.5767 9.54287 52.7828 11.4162 53.1629C10.9503 60.0621 12.4179 56.5444 14.5684 53.5374C13.8458 62.2584 15.0366 59.1167 18.4071 54.6298C46.9225 48.8628 62.6707 72.1174 62.8487 86.4005C62.7234 83.8092 58.5807 80.7954 56.3885 81.6256C54.9073 84.7636 53.2933 87.4272 51.3014 88.7412C51.5096 86.6606 51.3674 84.58 50.9893 82.4994C50.3327 85.0154 49.096 87.6281 47.1194 90.3641C43.1878 90.5835 37.6852 87.6591 39.2859 82.8115C41.5437 78.0971 37.115 77.1168 33.5471 78.4666C30.8661 79.4807 29.0545 82.2896 28.8066 83.1629C27.9123 86.3133 28.2066 93.3464 34.3236 98.0104C32.72 98.3057 31.0736 98.5689 29.9544 99.2275C40.3598 105.521 50.9807 103.394 56.8951 101.02C66.5787 97.1315 73.2576 86.3696 74.3025 78.0678C76.9902 89.7448 72.1749 102.723 61.3815 109.683C64.4652 110.009 70.5014 107.92 76.674 105.719C72.0078 111.592 66.4301 117.16 57.2932 121.542C75.29 120.035 88.4538 110.999 97.428 96.138Z" fill="#CACACA"/>
</g>
<defs>
<clipPath id="clip0_19_52">
<rect width="120.991" height="120.991" fill="white" transform="translate(0.657898 0.896301)"/>
</clipPath>
</defs>
</svg>
