<svg width="152" height="152" viewBox="0 0 152 152" fill="none" xmlns="http://www.w3.org/2000/svg">
<g clip-path="url(#clip0_22_100)">
<path d="M76.153 30.7271C55.9878 30.7271 43.3846 40.8096 38.3433 60.9748C45.9052 50.8922 54.7275 47.1113 64.8101 49.6319C70.5628 51.0701 74.6745 55.2434 79.2257 59.8632C86.6397 67.3888 95.2206 76.0987 113.963 76.0987C134.128 76.0987 146.731 66.0161 151.772 45.8509C144.21 55.9335 135.388 59.7145 125.306 57.1939C119.553 55.7557 115.441 51.5823 110.89 46.9625C103.476 39.437 94.8951 30.7271 76.153 30.7271ZM38.3433 76.0987C18.1781 76.0987 5.57484 86.1813 0.533539 106.347C8.09548 96.2639 16.9178 92.4829 27.0003 95.0036C32.753 96.4418 36.8648 100.615 41.4159 105.235C48.83 112.76 57.4109 121.47 76.153 121.47C96.3182 121.47 108.921 111.388 113.963 91.2226C106.401 101.305 97.5785 105.086 87.4959 102.566C81.7432 101.127 77.6315 96.954 73.0803 92.3342C65.6663 84.8087 57.0854 76.0987 38.3433 76.0987Z" fill="#CACACA"/>
</g>
<defs>
<clipPath id="clip0_22_100">
<rect width="151.239" height="151.239" fill="white" transform="translate(0.533554 0.597351)"/>
</clipPath>
</defs>
</svg>
