<svg
    width="418"
    height="518"
    viewBox="0 0 418 518"
    fill="none"
    xmlns="http://www.w3.org/2000/svg"
>
    <path
        d="M323.472 52.9312C354.972 95.6312 357.072 161.631 356.672 213.331C356.272 265.031 353.272 302.531 372.672 361.131C392.172 419.731 434.172 499.431 409.772 514.331C385.372 529.231 294.672 479.231 234.372 466.531C174.072 453.831 144.372 478.431 104.472 488.931C64.5724 499.431 14.5724 495.831 2.87239 467.331C-8.82761 438.831 17.7724 385.431 36.6724 348.731C55.5724 312.031 66.7724 292.031 66.0724 255.331C65.3724 218.731 52.8724 165.431 68.1724 115.231C83.5724 65.1312 126.772 18.0312 178.872 4.33122C230.972 -9.36878 291.872 10.1312 323.472 52.9312Z"
        fill="url(#paint0_linear_155_9)"
    />
    <defs>
        <linearGradient
            id="paint0_linear_155_9"
            x1="208.593"
            y1="0"
            x2="209"
            y2="517"
            gradientUnits="userSpaceOnUse"
        >
            <stop stop-color="#B220D7" />
            <stop offset="1" stop-color="#425D87" />
        </linearGradient>
    </defs>
</svg>