<svg
    width="542"
    height="372"
    viewBox="0 0 542 372"
    fill="none"
    xmlns="http://www.w3.org/2000/svg"
    style="max-width: 100%; width: 100%; height: 100%"
>
    <path
        d="M410.879 9.96713C460.279 19.0671 521.679 32.2671 537.179 66.3671C552.779 100.467 522.579 155.467 514.079 213.467C505.579 271.567 518.879 332.667 493.279 357.467C467.679 382.267 403.279 370.767 356.279 355.967C309.279 341.067 279.679 322.867 228.479 329.967C177.179 337.067 104.279 369.467 56.579 356.567C8.87902 343.667 -13.621 285.467 9.67903 239.867C32.979 194.267 102.179 161.267 142.779 133.067C183.379 104.867 195.479 81.4671 214.679 58.5671C233.879 35.6671 260.179 13.2671 292.079 4.56712C323.979 -4.13288 361.479 0.867131 410.879 9.96713Z"
        fill="url(#paint0_linear_155_12)"
    />
    <defs>
        <linearGradient
            id="paint0_linear_155_12"
            x1="6.36032e-09"
            y1="186"
            x2="542"
            y2="186"
            gradientUnits="userSpaceOnUse"
        >
            <stop stop-color="#B220D7" />
            <stop offset="1" stop-color="#425D87" />
        </linearGradient>
    </defs>
</svg>