<svg
    width="1024"
    height="709"
    viewBox="0 0 1024 709"
    fill="none"
    xmlns="http://www.w3.org/2000/svg"
    style="max-width: 100%"
>
    <path
        d="M840.336 0.740579C930.216 -5.03553 1007.61 72.2395 1021.03 161.223C1034.61 250.206 984.051 350.898 971.723 459.239C959.396 567.58 985.455 683.727 929.904 704.802C874.197 726.033 736.725 652.348 651.682 610.198C566.639 568.205 533.87 557.901 481.284 565.238C428.854 572.576 356.295 597.71 259.549 587.406C162.647 577.103 41.4029 531.518 9.57043 459.239C-22.2621 386.959 35.3173 287.985 118.644 240.371C201.97 192.757 311.043 196.504 386.411 195.567C461.935 194.631 503.754 189.167 576.002 142.021C648.093 95.0317 750.456 6.36058 840.336 0.740579Z"
        fill="url(#paint0_linear_152_6)"
    />
    <defs>
        <linearGradient
            id="paint0_linear_152_6"
            x1="1"
            y1="354"
            x2="1023"
            y2="354"
            gradientUnits="userSpaceOnUse"
        >
            <stop stop-color="#B220D7" />
            <stop
                offset="1"
                stop-color="#70A8FB"
                stop-opacity="0.5"
            />
        </linearGradient>
    </defs>
</svg>