<svg id="visual" viewBox="0 0 900 600" width="900" height="600" xmlns="http://www.w3.org/2000/svg" xmlns:xlink="http://www.w3.org/1999/xlink" version="1.1"><rect x="0" y="0" width="900" height="600" fill="#121212"></rect><path d="M0 374L8.8 375.5C17.7 377 35.3 380 53 404.3C70.7 428.7 88.3 474.3 106 498C123.7 521.7 141.3 523.3 159 500.8C176.7 478.3 194.3 431.7 212 440C229.7 448.3 247.3 511.7 265 534.5C282.7 557.3 300.3 539.7 318 540.2C335.7 540.7 353.3 559.3 371 528.3C388.7 497.3 406.3 416.7 423.8 416.2C441.3 415.7 458.7 495.3 476.2 515.5C493.7 535.7 511.3 496.3 529 497C546.7 497.7 564.3 538.3 582 516.3C599.7 494.3 617.3 409.7 635 399.5C652.7 389.3 670.3 453.7 688 461C705.7 468.3 723.3 418.7 741 428.3C758.7 438 776.3 507 794 503.2C811.7 499.3 829.3 422.7 847 384.7C864.7 346.7 882.3 347.3 891.2 347.7L900 348L900 0L891.2 0C882.3 0 864.7 0 847 0C829.3 0 811.7 0 794 0C776.3 0 758.7 0 741 0C723.3 0 705.7 0 688 0C670.3 0 652.7 0 635 0C617.3 0 599.7 0 582 0C564.3 0 546.7 0 529 0C511.3 0 493.7 0 476.2 0C458.7 0 441.3 0 423.8 0C406.3 0 388.7 0 371 0C353.3 0 335.7 0 318 0C300.3 0 282.7 0 265 0C247.3 0 229.7 0 212 0C194.3 0 176.7 0 159 0C141.3 0 123.7 0 106 0C88.3 0 70.7 0 53 0C35.3 0 17.7 0 8.8 0L0 0Z" fill="#121212"></path><path d="M0 377L8.8 392C17.7 407 35.3 437 53 450.3C70.7 463.7 88.3 460.3 106 449.7C123.7 439 141.3 421 159 432.3C176.7 443.7 194.3 484.3 212 466.7C229.7 449 247.3 373 265 361.3C282.7 349.7 300.3 402.3 318 406.3C335.7 410.3 353.3 365.7 371 338.8C388.7 312 406.3 303 423.8 310.2C441.3 317.3 458.7 340.7 476.2 369.3C493.7 398 511.3 432 529 438.3C546.7 444.7 564.3 423.3 582 401C599.7 378.7 617.3 355.3 635 363.3C652.7 371.3 670.3 410.7 688 438.2C705.7 465.7 723.3 481.3 741 461C758.7 440.7 776.3 384.3 794 362.7C811.7 341 829.3 354 847 387.3C864.7 420.7 882.3 474.3 891.2 501.2L900 528L900 0L891.2 0C882.3 0 864.7 0 847 0C829.3 0 811.7 0 794 0C776.3 0 758.7 0 741 0C723.3 0 705.7 0 688 0C670.3 0 652.7 0 635 0C617.3 0 599.7 0 582 0C564.3 0 546.7 0 529 0C511.3 0 493.7 0 476.2 0C458.7 0 441.3 0 423.8 0C406.3 0 388.7 0 371 0C353.3 0 335.7 0 318 0C300.3 0 282.7 0 265 0C247.3 0 229.7 0 212 0C194.3 0 176.7 0 159 0C141.3 0 123.7 0 106 0C88.3 0 70.7 0 53 0C35.3 0 17.7 0 8.8 0L0 0Z" fill="#1c161d"></path><path d="M0 267L8.8 278.2C17.7 289.3 35.3 311.7 53 343.5C70.7 375.3 88.3 416.7 106 426C123.7 435.3 141.3 412.7 159 383.7C176.7 354.7 194.3 319.3 212 320.3C229.7 321.3 247.3 358.7 265 379.3C282.7 400 300.3 404 318 394C335.7 384 353.3 360 371 350.8C388.7 341.7 406.3 347.3 423.8 366.7C441.3 386 458.7 419 476.2 420.3C493.7 421.7 511.3 391.3 529 359.8C546.7 328.3 564.3 295.7 582 309.8C599.7 324 617.3 385 635 397C652.7 409 670.3 372 688 344.5C705.7 317 723.3 299 741 314.5C758.7 330 776.3 379 794 379.8C811.7 380.7 829.3 333.3 847 336.7C864.7 340 882.3 394 891.2 421L900 448L900 0L891.2 0C882.3 0 864.7 0 847 0C829.3 0 811.7 0 794 0C776.3 0 758.7 0 741 0C723.3 0 705.7 0 688 0C670.3 0 652.7 0 635 0C617.3 0 599.7 0 582 0C564.3 0 546.7 0 529 0C511.3 0 493.7 0 476.2 0C458.7 0 441.3 0 423.8 0C406.3 0 388.7 0 371 0C353.3 0 335.7 0 318 0C300.3 0 282.7 0 265 0C247.3 0 229.7 0 212 0C194.3 0 176.7 0 159 0C141.3 0 123.7 0 106 0C88.3 0 70.7 0 53 0C35.3 0 17.7 0 8.8 0L0 0Z" fill="#251927"></path><path d="M0 387L8.8 360.8C17.7 334.7 35.3 282.3 53 285.2C70.7 288 88.3 346 106 351.5C123.7 357 141.3 310 159 306C176.7 302 194.3 341 212 368C229.7 395 247.3 410 265 387.8C282.7 365.7 300.3 306.3 318 279.8C335.7 253.3 353.3 259.7 371 286.2C388.7 312.7 406.3 359.3 423.8 387.7C441.3 416 458.7 426 476.2 407.7C493.7 389.3 511.3 342.7 529 339.3C546.7 336 564.3 376 582 385C599.7 394 617.3 372 635 362.3C652.7 352.7 670.3 355.3 688 357.5C705.7 359.7 723.3 361.3 741 370.3C758.7 379.3 776.3 395.7 794 404.7C811.7 413.7 829.3 415.3 847 405C864.7 394.7 882.3 372.3 891.2 361.2L900 350L900 0L891.2 0C882.3 0 864.7 0 847 0C829.3 0 811.7 0 794 0C776.3 0 758.7 0 741 0C723.3 0 705.7 0 688 0C670.3 0 652.7 0 635 0C617.3 0 599.7 0 582 0C564.3 0 546.7 0 529 0C511.3 0 493.7 0 476.2 0C458.7 0 441.3 0 423.8 0C406.3 0 388.7 0 371 0C353.3 0 335.7 0 318 0C300.3 0 282.7 0 265 0C247.3 0 229.7 0 212 0C194.3 0 176.7 0 159 0C141.3 0 123.7 0 106 0C88.3 0 70.7 0 53 0C35.3 0 17.7 0 8.8 0L0 0Z" fill="#2e1b32"></path><path d="M0 246L8.8 240C17.7 234 35.3 222 53 218.3C70.7 214.7 88.3 219.3 106 240.7C123.7 262 141.3 300 159 317C176.7 334 194.3 330 212 322C229.7 314 247.3 302 265 306.7C282.7 311.3 300.3 332.7 318 320C335.7 307.3 353.3 260.7 371 238.3C388.7 216 406.3 218 423.8 238.8C441.3 259.7 458.7 299.3 476.2 312.2C493.7 325 511.3 311 529 308.5C546.7 306 564.3 315 582 308.5C599.7 302 617.3 280 635 270.7C652.7 261.3 670.3 264.7 688 273.8C705.7 283 723.3 298 741 292.7C758.7 287.3 776.3 261.7 794 266.8C811.7 272 829.3 308 847 331.3C864.7 354.7 882.3 365.3 891.2 370.7L900 376L900 0L891.2 0C882.3 0 864.7 0 847 0C829.3 0 811.7 0 794 0C776.3 0 758.7 0 741 0C723.3 0 705.7 0 688 0C670.3 0 652.7 0 635 0C617.3 0 599.7 0 582 0C564.3 0 546.7 0 529 0C511.3 0 493.7 0 476.2 0C458.7 0 441.3 0 423.8 0C406.3 0 388.7 0 371 0C353.3 0 335.7 0 318 0C300.3 0 282.7 0 265 0C247.3 0 229.7 0 212 0C194.3 0 176.7 0 159 0C141.3 0 123.7 0 106 0C88.3 0 70.7 0 53 0C35.3 0 17.7 0 8.8 0L0 0Z" fill="#371e3d"></path><path d="M0 273L8.8 282.8C17.7 292.7 35.3 312.3 53 318.7C70.7 325 88.3 318 106 291.2C123.7 264.3 141.3 217.7 159 207.3C176.7 197 194.3 223 212 226.2C229.7 229.3 247.3 209.7 265 201C282.7 192.3 300.3 194.7 318 216.3C335.7 238 353.3 279 371 272.8C388.7 266.7 406.3 213.3 423.8 211.2C441.3 209 458.7 258 476.2 284.7C493.7 311.3 511.3 315.7 529 306.7C546.7 297.7 564.3 275.3 582 253.7C599.7 232 617.3 211 635 203.7C652.7 196.3 670.3 202.7 688 201.3C705.7 200 723.3 191 741 187.3C758.7 183.7 776.3 185.3 794 191.5C811.7 197.7 829.3 208.3 847 228.2C864.7 248 882.3 277 891.2 291.5L900 306L900 0L891.2 0C882.3 0 864.7 0 847 0C829.3 0 811.7 0 794 0C776.3 0 758.7 0 741 0C723.3 0 705.7 0 688 0C670.3 0 652.7 0 635 0C617.3 0 599.7 0 582 0C564.3 0 546.7 0 529 0C511.3 0 493.7 0 476.2 0C458.7 0 441.3 0 423.8 0C406.3 0 388.7 0 371 0C353.3 0 335.7 0 318 0C300.3 0 282.7 0 265 0C247.3 0 229.7 0 212 0C194.3 0 176.7 0 159 0C141.3 0 123.7 0 106 0C88.3 0 70.7 0 53 0C35.3 0 17.7 0 8.8 0L0 0Z" fill="#412048"></path><path d="M0 163L8.8 174.8C17.7 186.7 35.3 210.3 53 216.7C70.7 223 88.3 212 106 195.2C123.7 178.3 141.3 155.7 159 160.8C176.7 166 194.3 199 212 217.2C229.7 235.3 247.3 238.7 265 231.2C282.7 223.7 300.3 205.3 318 190.7C335.7 176 353.3 165 371 178.3C388.7 191.7 406.3 229.3 423.8 230.5C441.3 231.7 458.7 196.3 476.2 175.7C493.7 155 511.3 149 529 163.2C546.7 177.3 564.3 211.7 582 224.5C599.7 237.3 617.3 228.7 635 222.3C652.7 216 670.3 212 688 202.5C705.7 193 723.3 178 741 189.8C758.7 201.7 776.3 240.3 794 258.8C811.7 277.3 829.3 275.7 847 253.7C864.7 231.7 882.3 189.3 891.2 168.2L900 147L900 0L891.2 0C882.3 0 864.7 0 847 0C829.3 0 811.7 0 794 0C776.3 0 758.7 0 741 0C723.3 0 705.7 0 688 0C670.3 0 652.7 0 635 0C617.3 0 599.7 0 582 0C564.3 0 546.7 0 529 0C511.3 0 493.7 0 476.2 0C458.7 0 441.3 0 423.8 0C406.3 0 388.7 0 371 0C353.3 0 335.7 0 318 0C300.3 0 282.7 0 265 0C247.3 0 229.7 0 212 0C194.3 0 176.7 0 159 0C141.3 0 123.7 0 106 0C88.3 0 70.7 0 53 0C35.3 0 17.7 0 8.8 0L0 0Z" fill="#4b2254"></path><path d="M0 233L8.8 230.7C17.7 228.3 35.3 223.7 53 219.3C70.7 215 88.3 211 106 207.7C123.7 204.3 141.3 201.7 159 196.3C176.7 191 194.3 183 212 169.5C229.7 156 247.3 137 265 124.7C282.7 112.3 300.3 106.7 318 118.8C335.7 131 353.3 161 371 167.7C388.7 174.3 406.3 157.7 423.8 148.2C441.3 138.7 458.7 136.3 476.2 136.3C493.7 136.3 511.3 138.7 529 151.3C546.7 164 564.3 187 582 179.8C599.7 172.7 617.3 135.3 635 126.7C652.7 118 670.3 138 688 155C705.7 172 723.3 186 741 196.2C758.7 206.3 776.3 212.7 794 209.2C811.7 205.7 829.3 192.3 847 190.5C864.7 188.7 882.3 198.3 891.2 203.2L900 208L900 0L891.2 0C882.3 0 864.7 0 847 0C829.3 0 811.7 0 794 0C776.3 0 758.7 0 741 0C723.3 0 705.7 0 688 0C670.3 0 652.7 0 635 0C617.3 0 599.7 0 582 0C564.3 0 546.7 0 529 0C511.3 0 493.7 0 476.2 0C458.7 0 441.3 0 423.8 0C406.3 0 388.7 0 371 0C353.3 0 335.7 0 318 0C300.3 0 282.7 0 265 0C247.3 0 229.7 0 212 0C194.3 0 176.7 0 159 0C141.3 0 123.7 0 106 0C88.3 0 70.7 0 53 0C35.3 0 17.7 0 8.8 0L0 0Z" fill="#552460"></path><path d="M0 68L8.8 82C17.7 96 35.3 124 53 138.8C70.7 153.7 88.3 155.3 106 160.3C123.7 165.3 141.3 173.7 159 168.5C176.7 163.3 194.3 144.7 212 140.2C229.7 135.7 247.3 145.3 265 151.7C282.7 158 300.3 161 318 155.7C335.7 150.3 353.3 136.7 371 133.3C388.7 130 406.3 137 423.8 134.2C441.3 131.3 458.7 118.7 476.2 107.8C493.7 97 511.3 88 529 88.3C546.7 88.7 564.3 98.3 582 99C599.7 99.7 617.3 91.3 635 104.8C652.7 118.3 670.3 153.7 688 152.2C705.7 150.7 723.3 112.3 741 94.7C758.7 77 776.3 80 794 85.2C811.7 90.3 829.3 97.7 847 109.3C864.7 121 882.3 137 891.2 145L900 153L900 0L891.2 0C882.3 0 864.7 0 847 0C829.3 0 811.7 0 794 0C776.3 0 758.7 0 741 0C723.3 0 705.7 0 688 0C670.3 0 652.7 0 635 0C617.3 0 599.7 0 582 0C564.3 0 546.7 0 529 0C511.3 0 493.7 0 476.2 0C458.7 0 441.3 0 423.8 0C406.3 0 388.7 0 371 0C353.3 0 335.7 0 318 0C300.3 0 282.7 0 265 0C247.3 0 229.7 0 212 0C194.3 0 176.7 0 159 0C141.3 0 123.7 0 106 0C88.3 0 70.7 0 53 0C35.3 0 17.7 0 8.8 0L0 0Z" fill="#5f256c"></path><path d="M0 110L8.8 97.7C17.7 85.3 35.3 60.7 53 64.5C70.7 68.3 88.3 100.7 106 117C123.7 133.3 141.3 133.7 159 127.5C176.7 121.3 194.3 108.7 212 102.7C229.7 96.7 247.3 97.3 265 93.5C282.7 89.7 300.3 81.3 318 85.3C335.7 89.3 353.3 105.7 371 109.5C388.7 113.3 406.3 104.7 423.8 92.3C441.3 80 458.7 64 476.2 58.2C493.7 52.3 511.3 56.7 529 55.7C546.7 54.7 564.3 48.3 582 44.7C599.7 41 617.3 40 635 52.7C652.7 65.3 670.3 91.7 688 100.2C705.7 108.7 723.3 99.3 741 90.8C758.7 82.3 776.3 74.7 794 69.3C811.7 64 829.3 61 847 61.2C864.7 61.3 882.3 64.7 891.2 66.3L900 68L900 0L891.2 0C882.3 0 864.7 0 847 0C829.3 0 811.7 0 794 0C776.3 0 758.7 0 741 0C723.3 0 705.7 0 688 0C670.3 0 652.7 0 635 0C617.3 0 599.7 0 582 0C564.3 0 546.7 0 529 0C511.3 0 493.7 0 476.2 0C458.7 0 441.3 0 423.8 0C406.3 0 388.7 0 371 0C353.3 0 335.7 0 318 0C300.3 0 282.7 0 265 0C247.3 0 229.7 0 212 0C194.3 0 176.7 0 159 0C141.3 0 123.7 0 106 0C88.3 0 70.7 0 53 0C35.3 0 17.7 0 8.8 0L0 0Z" fill="#692778"></path><path d="M0 93L8.8 92.8C17.7 92.7 35.3 92.3 53 79.2C70.7 66 88.3 40 106 31.8C123.7 23.7 141.3 33.3 159 34C176.7 34.7 194.3 26.3 212 21C229.7 15.7 247.3 13.3 265 20C282.7 26.7 300.3 42.3 318 46.5C335.7 50.7 353.3 43.3 371 48.7C388.7 54 406.3 72 423.8 68C441.3 64 458.7 38 476.2 34.5C493.7 31 511.3 50 529 62.3C546.7 74.7 564.3 80.3 582 79.3C599.7 78.3 617.3 70.7 635 65.7C652.7 60.7 670.3 58.3 688 58.7C705.7 59 723.3 62 741 61.5C758.7 61 776.3 57 794 55C811.7 53 829.3 53 847 47.3C864.7 41.7 882.3 30.3 891.2 24.7L900 19L900 0L891.2 0C882.3 0 864.7 0 847 0C829.3 0 811.7 0 794 0C776.3 0 758.7 0 741 0C723.3 0 705.7 0 688 0C670.3 0 652.7 0 635 0C617.3 0 599.7 0 582 0C564.3 0 546.7 0 529 0C511.3 0 493.7 0 476.2 0C458.7 0 441.3 0 423.8 0C406.3 0 388.7 0 371 0C353.3 0 335.7 0 318 0C300.3 0 282.7 0 265 0C247.3 0 229.7 0 212 0C194.3 0 176.7 0 159 0C141.3 0 123.7 0 106 0C88.3 0 70.7 0 53 0C35.3 0 17.7 0 8.8 0L0 0Z" fill="#732885"></path></svg>