<svg id="visual" viewBox="0 0 960 540" width="960" height="540" xmlns="http://www.w3.org/2000/svg" xmlns:xlink="http://www.w3.org/1999/xlink" version="1.1"><rect x="0" y="0" width="960" height="540" fill="#121212"></rect><path d="M0 302L9.3 303C18.7 304 37.3 306 56.2 294.2C75 282.3 94 256.7 112.8 236.2C131.7 215.7 150.3 200.3 169.2 211.3C188 222.3 207 259.7 225.8 275.3C244.7 291 263.3 285 282.2 280.2C301 275.3 320 271.7 338.8 271.2C357.7 270.7 376.3 273.3 395.2 278.7C414 284 433 292 451.8 291.5C470.7 291 489.3 282 508.2 272.8C527 263.7 546 254.3 564.8 237.3C583.7 220.3 602.3 195.7 621.2 188.8C640 182 659 193 677.8 200.2C696.7 207.3 715.3 210.7 734.2 207.7C753 204.7 772 195.3 790.8 187.2C809.7 179 828.3 172 847.2 186.8C866 201.7 885 238.3 903.8 258.8C922.7 279.3 941.3 283.7 950.7 285.8L960 288L960 541L950.7 541C941.3 541 922.7 541 903.8 541C885 541 866 541 847.2 541C828.3 541 809.7 541 790.8 541C772 541 753 541 734.2 541C715.3 541 696.7 541 677.8 541C659 541 640 541 621.2 541C602.3 541 583.7 541 564.8 541C546 541 527 541 508.2 541C489.3 541 470.7 541 451.8 541C433 541 414 541 395.2 541C376.3 541 357.7 541 338.8 541C320 541 301 541 282.2 541C263.3 541 244.7 541 225.8 541C207 541 188 541 169.2 541C150.3 541 131.7 541 112.8 541C94 541 75 541 56.2 541C37.3 541 18.7 541 9.3 541L0 541Z" fill="#121212"></path><path d="M0 183L9.3 184.7C18.7 186.3 37.3 189.7 56.2 205.7C75 221.7 94 250.3 112.8 272.8C131.7 295.3 150.3 311.7 169.2 298.3C188 285 207 242 225.8 218.3C244.7 194.7 263.3 190.3 282.2 195C301 199.7 320 213.3 338.8 213C357.7 212.7 376.3 198.3 395.2 193.2C414 188 433 192 451.8 207C470.7 222 489.3 248 508.2 260.2C527 272.3 546 270.7 564.8 262.3C583.7 254 602.3 239 621.2 233.7C640 228.3 659 232.7 677.8 247.3C696.7 262 715.3 287 734.2 278.8C753 270.7 772 229.3 790.8 227C809.7 224.7 828.3 261.3 847.2 272.2C866 283 885 268 903.8 255.5C922.7 243 941.3 233 950.7 228L960 223L960 541L950.7 541C941.3 541 922.7 541 903.8 541C885 541 866 541 847.2 541C828.3 541 809.7 541 790.8 541C772 541 753 541 734.2 541C715.3 541 696.7 541 677.8 541C659 541 640 541 621.2 541C602.3 541 583.7 541 564.8 541C546 541 527 541 508.2 541C489.3 541 470.7 541 451.8 541C433 541 414 541 395.2 541C376.3 541 357.7 541 338.8 541C320 541 301 541 282.2 541C263.3 541 244.7 541 225.8 541C207 541 188 541 169.2 541C150.3 541 131.7 541 112.8 541C94 541 75 541 56.2 541C37.3 541 18.7 541 9.3 541L0 541Z" fill="#1c161d"></path><path d="M0 311L9.3 318.2C18.7 325.3 37.3 339.7 56.2 324.3C75 309 94 264 112.8 259.5C131.7 255 150.3 291 169.2 304.2C188 317.3 207 307.7 225.8 302.2C244.7 296.7 263.3 295.3 282.2 300.8C301 306.3 320 318.7 338.8 309.5C357.7 300.3 376.3 269.7 395.2 271.8C414 274 433 309 451.8 310.7C470.7 312.3 489.3 280.7 508.2 265.2C527 249.7 546 250.3 564.8 246C583.7 241.7 602.3 232.3 621.2 246C640 259.7 659 296.3 677.8 295.5C696.7 294.7 715.3 256.3 734.2 247C753 237.7 772 257.3 790.8 276C809.7 294.7 828.3 312.3 847.2 322.8C866 333.3 885 336.7 903.8 333.7C922.7 330.7 941.3 321.3 950.7 316.7L960 312L960 541L950.7 541C941.3 541 922.7 541 903.8 541C885 541 866 541 847.2 541C828.3 541 809.7 541 790.8 541C772 541 753 541 734.2 541C715.3 541 696.7 541 677.8 541C659 541 640 541 621.2 541C602.3 541 583.7 541 564.8 541C546 541 527 541 508.2 541C489.3 541 470.7 541 451.8 541C433 541 414 541 395.2 541C376.3 541 357.7 541 338.8 541C320 541 301 541 282.2 541C263.3 541 244.7 541 225.8 541C207 541 188 541 169.2 541C150.3 541 131.7 541 112.8 541C94 541 75 541 56.2 541C37.3 541 18.7 541 9.3 541L0 541Z" fill="#251927"></path><path d="M0 294L9.3 308.3C18.7 322.7 37.3 351.3 56.2 343.2C75 335 94 290 112.8 274.2C131.7 258.3 150.3 271.7 169.2 278.5C188 285.3 207 285.7 225.8 301.5C244.7 317.3 263.3 348.7 282.2 363.7C301 378.7 320 377.3 338.8 377.5C357.7 377.7 376.3 379.3 395.2 364.5C414 349.7 433 318.3 451.8 315.3C470.7 312.3 489.3 337.7 508.2 350C527 362.3 546 361.7 564.8 356.7C583.7 351.7 602.3 342.3 621.2 333.8C640 325.3 659 317.7 677.8 320C696.7 322.3 715.3 334.7 734.2 335.3C753 336 772 325 790.8 330.8C809.7 336.7 828.3 359.3 847.2 365.7C866 372 885 362 903.8 350.2C922.7 338.3 941.3 324.7 950.7 317.8L960 311L960 541L950.7 541C941.3 541 922.7 541 903.8 541C885 541 866 541 847.2 541C828.3 541 809.7 541 790.8 541C772 541 753 541 734.2 541C715.3 541 696.7 541 677.8 541C659 541 640 541 621.2 541C602.3 541 583.7 541 564.8 541C546 541 527 541 508.2 541C489.3 541 470.7 541 451.8 541C433 541 414 541 395.2 541C376.3 541 357.7 541 338.8 541C320 541 301 541 282.2 541C263.3 541 244.7 541 225.8 541C207 541 188 541 169.2 541C150.3 541 131.7 541 112.8 541C94 541 75 541 56.2 541C37.3 541 18.7 541 9.3 541L0 541Z" fill="#2e1b32"></path><path d="M0 338L9.3 335.5C18.7 333 37.3 328 56.2 331.8C75 335.7 94 348.3 112.8 361.5C131.7 374.7 150.3 388.3 169.2 395.3C188 402.3 207 402.7 225.8 393.3C244.7 384 263.3 365 282.2 360.7C301 356.3 320 366.7 338.8 372.2C357.7 377.7 376.3 378.3 395.2 369.2C414 360 433 341 451.8 332.8C470.7 324.7 489.3 327.3 508.2 322.5C527 317.7 546 305.3 564.8 310.2C583.7 315 602.3 337 621.2 353.2C640 369.3 659 379.7 677.8 379.7C696.7 379.7 715.3 369.3 734.2 368.2C753 367 772 375 790.8 382.3C809.7 389.7 828.3 396.3 847.2 399C866 401.7 885 400.3 903.8 387.5C922.7 374.7 941.3 350.3 950.7 338.2L960 326L960 541L950.7 541C941.3 541 922.7 541 903.8 541C885 541 866 541 847.2 541C828.3 541 809.7 541 790.8 541C772 541 753 541 734.2 541C715.3 541 696.7 541 677.8 541C659 541 640 541 621.2 541C602.3 541 583.7 541 564.8 541C546 541 527 541 508.2 541C489.3 541 470.7 541 451.8 541C433 541 414 541 395.2 541C376.3 541 357.7 541 338.8 541C320 541 301 541 282.2 541C263.3 541 244.7 541 225.8 541C207 541 188 541 169.2 541C150.3 541 131.7 541 112.8 541C94 541 75 541 56.2 541C37.3 541 18.7 541 9.3 541L0 541Z" fill="#371e3d"></path><path d="M0 423L9.3 413.3C18.7 403.7 37.3 384.3 56.2 368.8C75 353.3 94 341.7 112.8 348.3C131.7 355 150.3 380 169.2 394.7C188 409.3 207 413.7 225.8 410.5C244.7 407.3 263.3 396.7 282.2 384C301 371.3 320 356.7 338.8 360.8C357.7 365 376.3 388 395.2 386C414 384 433 357 451.8 348.3C470.7 339.7 489.3 349.3 508.2 353.8C527 358.3 546 357.7 564.8 365.8C583.7 374 602.3 391 621.2 390.7C640 390.3 659 372.7 677.8 365.3C696.7 358 715.3 361 734.2 368.3C753 375.7 772 387.3 790.8 380C809.7 372.7 828.3 346.3 847.2 332.3C866 318.3 885 316.7 903.8 318.5C922.7 320.3 941.3 325.7 950.7 328.3L960 331L960 541L950.7 541C941.3 541 922.7 541 903.8 541C885 541 866 541 847.2 541C828.3 541 809.7 541 790.8 541C772 541 753 541 734.2 541C715.3 541 696.7 541 677.8 541C659 541 640 541 621.2 541C602.3 541 583.7 541 564.8 541C546 541 527 541 508.2 541C489.3 541 470.7 541 451.8 541C433 541 414 541 395.2 541C376.3 541 357.7 541 338.8 541C320 541 301 541 282.2 541C263.3 541 244.7 541 225.8 541C207 541 188 541 169.2 541C150.3 541 131.7 541 112.8 541C94 541 75 541 56.2 541C37.3 541 18.7 541 9.3 541L0 541Z" fill="#412048"></path><path d="M0 365L9.3 364.3C18.7 363.7 37.3 362.3 56.2 361.2C75 360 94 359 112.8 367.8C131.7 376.7 150.3 395.3 169.2 408.5C188 421.7 207 429.3 225.8 429.2C244.7 429 263.3 421 282.2 412.2C301 403.3 320 393.7 338.8 389C357.7 384.3 376.3 384.7 395.2 389.3C414 394 433 403 451.8 412C470.7 421 489.3 430 508.2 434.3C527 438.7 546 438.3 564.8 425C583.7 411.7 602.3 385.3 621.2 383.2C640 381 659 403 677.8 407.7C696.7 412.3 715.3 399.7 734.2 399.8C753 400 772 413 790.8 421.2C809.7 429.3 828.3 432.7 847.2 435.8C866 439 885 442 903.8 437C922.7 432 941.3 419 950.7 412.5L960 406L960 541L950.7 541C941.3 541 922.7 541 903.8 541C885 541 866 541 847.2 541C828.3 541 809.7 541 790.8 541C772 541 753 541 734.2 541C715.3 541 696.7 541 677.8 541C659 541 640 541 621.2 541C602.3 541 583.7 541 564.8 541C546 541 527 541 508.2 541C489.3 541 470.7 541 451.8 541C433 541 414 541 395.2 541C376.3 541 357.7 541 338.8 541C320 541 301 541 282.2 541C263.3 541 244.7 541 225.8 541C207 541 188 541 169.2 541C150.3 541 131.7 541 112.8 541C94 541 75 541 56.2 541C37.3 541 18.7 541 9.3 541L0 541Z" fill="#4b2254"></path><path d="M0 417L9.3 415C18.7 413 37.3 409 56.2 413C75 417 94 429 112.8 428.2C131.7 427.3 150.3 413.7 169.2 407.2C188 400.7 207 401.3 225.8 411C244.7 420.7 263.3 439.3 282.2 445.7C301 452 320 446 338.8 443.7C357.7 441.3 376.3 442.7 395.2 442.2C414 441.7 433 439.3 451.8 439.8C470.7 440.3 489.3 443.7 508.2 445.5C527 447.3 546 447.7 564.8 448.8C583.7 450 602.3 452 621.2 453.7C640 455.3 659 456.7 677.8 444.2C696.7 431.7 715.3 405.3 734.2 393.2C753 381 772 383 790.8 396.2C809.7 409.3 828.3 433.7 847.2 446.8C866 460 885 462 903.8 449.3C922.7 436.7 941.3 409.3 950.7 395.7L960 382L960 541L950.7 541C941.3 541 922.7 541 903.8 541C885 541 866 541 847.2 541C828.3 541 809.7 541 790.8 541C772 541 753 541 734.2 541C715.3 541 696.7 541 677.8 541C659 541 640 541 621.2 541C602.3 541 583.7 541 564.8 541C546 541 527 541 508.2 541C489.3 541 470.7 541 451.8 541C433 541 414 541 395.2 541C376.3 541 357.7 541 338.8 541C320 541 301 541 282.2 541C263.3 541 244.7 541 225.8 541C207 541 188 541 169.2 541C150.3 541 131.7 541 112.8 541C94 541 75 541 56.2 541C37.3 541 18.7 541 9.3 541L0 541Z" fill="#552460"></path><path d="M0 430L9.3 429.8C18.7 429.7 37.3 429.3 56.2 429.3C75 429.3 94 429.7 112.8 435.3C131.7 441 150.3 452 169.2 451.2C188 450.3 207 437.7 225.8 437C244.7 436.3 263.3 447.7 282.2 454.2C301 460.7 320 462.3 338.8 464C357.7 465.7 376.3 467.3 395.2 458.8C414 450.3 433 431.7 451.8 422.8C470.7 414 489.3 415 508.2 415.8C527 416.7 546 417.3 564.8 421.5C583.7 425.7 602.3 433.3 621.2 441C640 448.7 659 456.3 677.8 457.5C696.7 458.7 715.3 453.3 734.2 446.2C753 439 772 430 790.8 436C809.7 442 828.3 463 847.2 466.8C866 470.7 885 457.3 903.8 448.2C922.7 439 941.3 434 950.7 431.5L960 429L960 541L950.7 541C941.3 541 922.7 541 903.8 541C885 541 866 541 847.2 541C828.3 541 809.7 541 790.8 541C772 541 753 541 734.2 541C715.3 541 696.7 541 677.8 541C659 541 640 541 621.2 541C602.3 541 583.7 541 564.8 541C546 541 527 541 508.2 541C489.3 541 470.7 541 451.8 541C433 541 414 541 395.2 541C376.3 541 357.7 541 338.8 541C320 541 301 541 282.2 541C263.3 541 244.7 541 225.8 541C207 541 188 541 169.2 541C150.3 541 131.7 541 112.8 541C94 541 75 541 56.2 541C37.3 541 18.7 541 9.3 541L0 541Z" fill="#5f256c"></path><path d="M0 455L9.3 462.7C18.7 470.3 37.3 485.7 56.2 492.2C75 498.7 94 496.3 112.8 494.5C131.7 492.7 150.3 491.3 169.2 492.5C188 493.7 207 497.3 225.8 496.7C244.7 496 263.3 491 282.2 490.5C301 490 320 494 338.8 489.3C357.7 484.7 376.3 471.3 395.2 467.7C414 464 433 470 451.8 474.2C470.7 478.3 489.3 480.7 508.2 482.8C527 485 546 487 564.8 482.8C583.7 478.7 602.3 468.3 621.2 470.8C640 473.3 659 488.7 677.8 490C696.7 491.3 715.3 478.7 734.2 471.8C753 465 772 464 790.8 463C809.7 462 828.3 461 847.2 460.5C866 460 885 460 903.8 459.2C922.7 458.3 941.3 456.7 950.7 455.8L960 455L960 541L950.7 541C941.3 541 922.7 541 903.8 541C885 541 866 541 847.2 541C828.3 541 809.7 541 790.8 541C772 541 753 541 734.2 541C715.3 541 696.7 541 677.8 541C659 541 640 541 621.2 541C602.3 541 583.7 541 564.8 541C546 541 527 541 508.2 541C489.3 541 470.7 541 451.8 541C433 541 414 541 395.2 541C376.3 541 357.7 541 338.8 541C320 541 301 541 282.2 541C263.3 541 244.7 541 225.8 541C207 541 188 541 169.2 541C150.3 541 131.7 541 112.8 541C94 541 75 541 56.2 541C37.3 541 18.7 541 9.3 541L0 541Z" fill="#692778"></path><path d="M0 519L9.3 520C18.7 521 37.3 523 56.2 524.2C75 525.3 94 525.7 112.8 525.8C131.7 526 150.3 526 169.2 520.2C188 514.3 207 502.7 225.8 497.3C244.7 492 263.3 493 282.2 494.8C301 496.7 320 499.3 338.8 500.8C357.7 502.3 376.3 502.7 395.2 501.7C414 500.7 433 498.3 451.8 494.2C470.7 490 489.3 484 508.2 488.3C527 492.7 546 507.3 564.8 511.2C583.7 515 602.3 508 621.2 509C640 510 659 519 677.8 519.5C696.7 520 715.3 512 734.2 506.7C753 501.3 772 498.7 790.8 498.8C809.7 499 828.3 502 847.2 506.2C866 510.3 885 515.7 903.8 519.5C922.7 523.3 941.3 525.7 950.7 526.8L960 528L960 541L950.7 541C941.3 541 922.7 541 903.8 541C885 541 866 541 847.2 541C828.3 541 809.7 541 790.8 541C772 541 753 541 734.2 541C715.3 541 696.7 541 677.8 541C659 541 640 541 621.2 541C602.3 541 583.7 541 564.8 541C546 541 527 541 508.2 541C489.3 541 470.7 541 451.8 541C433 541 414 541 395.2 541C376.3 541 357.7 541 338.8 541C320 541 301 541 282.2 541C263.3 541 244.7 541 225.8 541C207 541 188 541 169.2 541C150.3 541 131.7 541 112.8 541C94 541 75 541 56.2 541C37.3 541 18.7 541 9.3 541L0 541Z" fill="#732885"></path></svg>