<svg id="visual" viewBox="0 0 960 540" width="960" height="540" xmlns="http://www.w3.org/2000/svg" xmlns:xlink="http://www.w3.org/1999/xlink" version="1.1"><rect x="0" y="0" width="960" height="540" fill="#121212"></rect><path d="M0 291L9.3 293.3C18.7 295.7 37.3 300.3 56.2 288.8C75 277.3 94 249.7 112.8 256.5C131.7 263.3 150.3 304.7 169.2 313C188 321.3 207 296.7 225.8 286.8C244.7 277 263.3 282 282.2 300.3C301 318.7 320 350.3 338.8 350.3C357.7 350.3 376.3 318.7 395.2 307.8C414 297 433 307 451.8 316C470.7 325 489.3 333 508.2 318.3C527 303.7 546 266.3 564.8 265.2C583.7 264 602.3 299 621.2 320C640 341 659 348 677.8 348.5C696.7 349 715.3 343 734.2 349.2C753 355.3 772 373.7 790.8 370.2C809.7 366.7 828.3 341.3 847.2 331.8C866 322.3 885 328.7 903.8 340.8C922.7 353 941.3 371 950.7 380L960 389L960 0L950.7 0C941.3 0 922.7 0 903.8 0C885 0 866 0 847.2 0C828.3 0 809.7 0 790.8 0C772 0 753 0 734.2 0C715.3 0 696.7 0 677.8 0C659 0 640 0 621.2 0C602.3 0 583.7 0 564.8 0C546 0 527 0 508.2 0C489.3 0 470.7 0 451.8 0C433 0 414 0 395.2 0C376.3 0 357.7 0 338.8 0C320 0 301 0 282.2 0C263.3 0 244.7 0 225.8 0C207 0 188 0 169.2 0C150.3 0 131.7 0 112.8 0C94 0 75 0 56.2 0C37.3 0 18.7 0 9.3 0L0 0Z" fill="#121212"></path><path d="M0 358L9.3 348.8C18.7 339.7 37.3 321.3 56.2 301.3C75 281.3 94 259.7 112.8 262.2C131.7 264.7 150.3 291.3 169.2 295.5C188 299.7 207 281.3 225.8 262.3C244.7 243.3 263.3 223.7 282.2 217C301 210.3 320 216.7 338.8 233C357.7 249.3 376.3 275.7 395.2 296C414 316.3 433 330.7 451.8 331.7C470.7 332.7 489.3 320.3 508.2 307.3C527 294.3 546 280.7 564.8 287.2C583.7 293.7 602.3 320.3 621.2 321.3C640 322.3 659 297.7 677.8 273.7C696.7 249.7 715.3 226.3 734.2 216.3C753 206.3 772 209.7 790.8 213.7C809.7 217.7 828.3 222.3 847.2 227.7C866 233 885 239 903.8 248.3C922.7 257.7 941.3 270.3 950.7 276.7L960 283L960 0L950.7 0C941.3 0 922.7 0 903.8 0C885 0 866 0 847.2 0C828.3 0 809.7 0 790.8 0C772 0 753 0 734.2 0C715.3 0 696.7 0 677.8 0C659 0 640 0 621.2 0C602.3 0 583.7 0 564.8 0C546 0 527 0 508.2 0C489.3 0 470.7 0 451.8 0C433 0 414 0 395.2 0C376.3 0 357.7 0 338.8 0C320 0 301 0 282.2 0C263.3 0 244.7 0 225.8 0C207 0 188 0 169.2 0C150.3 0 131.7 0 112.8 0C94 0 75 0 56.2 0C37.3 0 18.7 0 9.3 0L0 0Z" fill="#1c161d"></path><path d="M0 304L9.3 292.3C18.7 280.7 37.3 257.3 56.2 251.3C75 245.3 94 256.7 112.8 265.8C131.7 275 150.3 282 169.2 275.2C188 268.3 207 247.7 225.8 248C244.7 248.3 263.3 269.7 282.2 269.2C301 268.7 320 246.3 338.8 235.5C357.7 224.7 376.3 225.3 395.2 241.5C414 257.7 433 289.3 451.8 283.2C470.7 277 489.3 233 508.2 228.7C527 224.3 546 259.7 564.8 276.5C583.7 293.3 602.3 291.7 621.2 272.3C640 253 659 216 677.8 213.2C696.7 210.3 715.3 241.7 734.2 263.7C753 285.7 772 298.3 790.8 289.7C809.7 281 828.3 251 847.2 236.7C866 222.3 885 223.7 903.8 230.5C922.7 237.3 941.3 249.7 950.7 255.8L960 262L960 0L950.7 0C941.3 0 922.7 0 903.8 0C885 0 866 0 847.2 0C828.3 0 809.7 0 790.8 0C772 0 753 0 734.2 0C715.3 0 696.7 0 677.8 0C659 0 640 0 621.2 0C602.3 0 583.7 0 564.8 0C546 0 527 0 508.2 0C489.3 0 470.7 0 451.8 0C433 0 414 0 395.2 0C376.3 0 357.7 0 338.8 0C320 0 301 0 282.2 0C263.3 0 244.7 0 225.8 0C207 0 188 0 169.2 0C150.3 0 131.7 0 112.8 0C94 0 75 0 56.2 0C37.3 0 18.7 0 9.3 0L0 0Z" fill="#251927"></path><path d="M0 271L9.3 264.2C18.7 257.3 37.3 243.7 56.2 229.5C75 215.3 94 200.7 112.8 200C131.7 199.3 150.3 212.7 169.2 226.2C188 239.7 207 253.3 225.8 249.2C244.7 245 263.3 223 282.2 206.3C301 189.7 320 178.3 338.8 192.5C357.7 206.7 376.3 246.3 395.2 248.2C414 250 433 214 451.8 197.8C470.7 181.7 489.3 185.3 508.2 181.5C527 177.7 546 166.3 564.8 163.8C583.7 161.3 602.3 167.7 621.2 184.7C640 201.7 659 229.3 677.8 236.5C696.7 243.7 715.3 230.3 734.2 227.8C753 225.3 772 233.7 790.8 237.2C809.7 240.7 828.3 239.3 847.2 232.5C866 225.7 885 213.3 903.8 207.3C922.7 201.3 941.3 201.7 950.7 201.8L960 202L960 0L950.7 0C941.3 0 922.7 0 903.8 0C885 0 866 0 847.2 0C828.3 0 809.7 0 790.8 0C772 0 753 0 734.2 0C715.3 0 696.7 0 677.8 0C659 0 640 0 621.2 0C602.3 0 583.7 0 564.8 0C546 0 527 0 508.2 0C489.3 0 470.7 0 451.8 0C433 0 414 0 395.2 0C376.3 0 357.7 0 338.8 0C320 0 301 0 282.2 0C263.3 0 244.7 0 225.8 0C207 0 188 0 169.2 0C150.3 0 131.7 0 112.8 0C94 0 75 0 56.2 0C37.3 0 18.7 0 9.3 0L0 0Z" fill="#2e1b32"></path><path d="M0 150L9.3 154.7C18.7 159.3 37.3 168.7 56.2 179.3C75 190 94 202 112.8 206.3C131.7 210.7 150.3 207.3 169.2 202.3C188 197.3 207 190.7 225.8 188.8C244.7 187 263.3 190 282.2 184.8C301 179.7 320 166.3 338.8 171.5C357.7 176.7 376.3 200.3 395.2 205.7C414 211 433 198 451.8 196.7C470.7 195.3 489.3 205.7 508.2 208.3C527 211 546 206 564.8 206C583.7 206 602.3 211 621.2 201.2C640 191.3 659 166.7 677.8 160.5C696.7 154.3 715.3 166.7 734.2 179.5C753 192.3 772 205.7 790.8 208.2C809.7 210.7 828.3 202.3 847.2 192.8C866 183.3 885 172.7 903.8 177C922.7 181.3 941.3 200.7 950.7 210.3L960 220L960 0L950.7 0C941.3 0 922.7 0 903.8 0C885 0 866 0 847.2 0C828.3 0 809.7 0 790.8 0C772 0 753 0 734.2 0C715.3 0 696.7 0 677.8 0C659 0 640 0 621.2 0C602.3 0 583.7 0 564.8 0C546 0 527 0 508.2 0C489.3 0 470.7 0 451.8 0C433 0 414 0 395.2 0C376.3 0 357.7 0 338.8 0C320 0 301 0 282.2 0C263.3 0 244.7 0 225.8 0C207 0 188 0 169.2 0C150.3 0 131.7 0 112.8 0C94 0 75 0 56.2 0C37.3 0 18.7 0 9.3 0L0 0Z" fill="#371e3d"></path><path d="M0 206L9.3 198C18.7 190 37.3 174 56.2 163.7C75 153.3 94 148.7 112.8 155.2C131.7 161.7 150.3 179.3 169.2 193C188 206.7 207 216.3 225.8 205C244.7 193.7 263.3 161.3 282.2 147.3C301 133.3 320 137.7 338.8 148C357.7 158.3 376.3 174.7 395.2 186.2C414 197.7 433 204.3 451.8 197.3C470.7 190.3 489.3 169.7 508.2 155.5C527 141.3 546 133.7 564.8 146.3C583.7 159 602.3 192 621.2 196.7C640 201.3 659 177.7 677.8 177.8C696.7 178 715.3 202 734.2 206.8C753 211.7 772 197.3 790.8 189.2C809.7 181 828.3 179 847.2 170C866 161 885 145 903.8 153C922.7 161 941.3 193 950.7 209L960 225L960 0L950.7 0C941.3 0 922.7 0 903.8 0C885 0 866 0 847.2 0C828.3 0 809.7 0 790.8 0C772 0 753 0 734.2 0C715.3 0 696.7 0 677.8 0C659 0 640 0 621.2 0C602.3 0 583.7 0 564.8 0C546 0 527 0 508.2 0C489.3 0 470.7 0 451.8 0C433 0 414 0 395.2 0C376.3 0 357.7 0 338.8 0C320 0 301 0 282.2 0C263.3 0 244.7 0 225.8 0C207 0 188 0 169.2 0C150.3 0 131.7 0 112.8 0C94 0 75 0 56.2 0C37.3 0 18.7 0 9.3 0L0 0Z" fill="#412048"></path><path d="M0 118L9.3 114.8C18.7 111.7 37.3 105.3 56.2 106.8C75 108.3 94 117.7 112.8 118C131.7 118.3 150.3 109.7 169.2 109.7C188 109.7 207 118.3 225.8 123C244.7 127.7 263.3 128.3 282.2 134C301 139.7 320 150.3 338.8 152C357.7 153.7 376.3 146.3 395.2 150.2C414 154 433 169 451.8 168.5C470.7 168 489.3 152 508.2 151.8C527 151.7 546 167.3 564.8 170.7C583.7 174 602.3 165 621.2 155.7C640 146.3 659 136.7 677.8 137.8C696.7 139 715.3 151 734.2 148C753 145 772 127 790.8 131.3C809.7 135.7 828.3 162.3 847.2 168.5C866 174.7 885 160.3 903.8 150C922.7 139.7 941.3 133.3 950.7 130.2L960 127L960 0L950.7 0C941.3 0 922.7 0 903.8 0C885 0 866 0 847.2 0C828.3 0 809.7 0 790.8 0C772 0 753 0 734.2 0C715.3 0 696.7 0 677.8 0C659 0 640 0 621.2 0C602.3 0 583.7 0 564.8 0C546 0 527 0 508.2 0C489.3 0 470.7 0 451.8 0C433 0 414 0 395.2 0C376.3 0 357.7 0 338.8 0C320 0 301 0 282.2 0C263.3 0 244.7 0 225.8 0C207 0 188 0 169.2 0C150.3 0 131.7 0 112.8 0C94 0 75 0 56.2 0C37.3 0 18.7 0 9.3 0L0 0Z" fill="#4b2254"></path><path d="M0 114L9.3 108C18.7 102 37.3 90 56.2 85C75 80 94 82 112.8 81.5C131.7 81 150.3 78 169.2 85C188 92 207 109 225.8 118.2C244.7 127.3 263.3 128.7 282.2 129.8C301 131 320 132 338.8 127C357.7 122 376.3 111 395.2 114.3C414 117.7 433 135.3 451.8 133.5C470.7 131.7 489.3 110.3 508.2 100.8C527 91.3 546 93.7 564.8 95.7C583.7 97.7 602.3 99.3 621.2 109.5C640 119.7 659 138.3 677.8 143C696.7 147.7 715.3 138.3 734.2 126.5C753 114.7 772 100.3 790.8 103C809.7 105.7 828.3 125.3 847.2 128.3C866 131.3 885 117.7 903.8 111.8C922.7 106 941.3 108 950.7 109L960 110L960 0L950.7 0C941.3 0 922.7 0 903.8 0C885 0 866 0 847.2 0C828.3 0 809.7 0 790.8 0C772 0 753 0 734.2 0C715.3 0 696.7 0 677.8 0C659 0 640 0 621.2 0C602.3 0 583.7 0 564.8 0C546 0 527 0 508.2 0C489.3 0 470.7 0 451.8 0C433 0 414 0 395.2 0C376.3 0 357.7 0 338.8 0C320 0 301 0 282.2 0C263.3 0 244.7 0 225.8 0C207 0 188 0 169.2 0C150.3 0 131.7 0 112.8 0C94 0 75 0 56.2 0C37.3 0 18.7 0 9.3 0L0 0Z" fill="#552460"></path><path d="M0 121L9.3 117.7C18.7 114.3 37.3 107.7 56.2 105.8C75 104 94 107 112.8 104.3C131.7 101.7 150.3 93.3 169.2 92.2C188 91 207 97 225.8 95.2C244.7 93.3 263.3 83.7 282.2 79.8C301 76 320 78 338.8 83.5C357.7 89 376.3 98 395.2 98.7C414 99.3 433 91.7 451.8 90.8C470.7 90 489.3 96 508.2 96.7C527 97.3 546 92.7 564.8 91.8C583.7 91 602.3 94 621.2 91.5C640 89 659 81 677.8 82.7C696.7 84.3 715.3 95.7 734.2 101C753 106.3 772 105.7 790.8 108.3C809.7 111 828.3 117 847.2 117.8C866 118.7 885 114.3 903.8 107.7C922.7 101 941.3 92 950.7 87.5L960 83L960 0L950.7 0C941.3 0 922.7 0 903.8 0C885 0 866 0 847.2 0C828.3 0 809.7 0 790.8 0C772 0 753 0 734.2 0C715.3 0 696.7 0 677.8 0C659 0 640 0 621.2 0C602.3 0 583.7 0 564.8 0C546 0 527 0 508.2 0C489.3 0 470.7 0 451.8 0C433 0 414 0 395.2 0C376.3 0 357.7 0 338.8 0C320 0 301 0 282.2 0C263.3 0 244.7 0 225.8 0C207 0 188 0 169.2 0C150.3 0 131.7 0 112.8 0C94 0 75 0 56.2 0C37.3 0 18.7 0 9.3 0L0 0Z" fill="#5f256c"></path><path d="M0 36L9.3 39.3C18.7 42.7 37.3 49.3 56.2 54.8C75 60.3 94 64.7 112.8 62.7C131.7 60.7 150.3 52.3 169.2 55.7C188 59 207 74 225.8 75.8C244.7 77.7 263.3 66.3 282.2 61.2C301 56 320 57 338.8 59.2C357.7 61.3 376.3 64.7 395.2 61.3C414 58 433 48 451.8 45.7C470.7 43.3 489.3 48.7 508.2 55.3C527 62 546 70 564.8 72.8C583.7 75.7 602.3 73.3 621.2 72.5C640 71.7 659 72.3 677.8 73C696.7 73.7 715.3 74.3 734.2 73.3C753 72.3 772 69.7 790.8 65.8C809.7 62 828.3 57 847.2 54C866 51 885 50 903.8 53C922.7 56 941.3 63 950.7 66.5L960 70L960 0L950.7 0C941.3 0 922.7 0 903.8 0C885 0 866 0 847.2 0C828.3 0 809.7 0 790.8 0C772 0 753 0 734.2 0C715.3 0 696.7 0 677.8 0C659 0 640 0 621.2 0C602.3 0 583.7 0 564.8 0C546 0 527 0 508.2 0C489.3 0 470.7 0 451.8 0C433 0 414 0 395.2 0C376.3 0 357.7 0 338.8 0C320 0 301 0 282.2 0C263.3 0 244.7 0 225.8 0C207 0 188 0 169.2 0C150.3 0 131.7 0 112.8 0C94 0 75 0 56.2 0C37.3 0 18.7 0 9.3 0L0 0Z" fill="#692778"></path><path d="M0 19L9.3 21C18.7 23 37.3 27 56.2 31.8C75 36.7 94 42.3 112.8 43.8C131.7 45.3 150.3 42.7 169.2 44.5C188 46.3 207 52.7 225.8 48.3C244.7 44 263.3 29 282.2 22.3C301 15.7 320 17.3 338.8 24.3C357.7 31.3 376.3 43.7 395.2 44.7C414 45.7 433 35.3 451.8 31.2C470.7 27 489.3 29 508.2 34.2C527 39.3 546 47.7 564.8 51.2C583.7 54.7 602.3 53.3 621.2 49.8C640 46.3 659 40.7 677.8 37C696.7 33.3 715.3 31.7 734.2 28.3C753 25 772 20 790.8 21.8C809.7 23.7 828.3 32.3 847.2 32.7C866 33 885 25 903.8 23.8C922.7 22.7 941.3 28.3 950.7 31.2L960 34L960 0L950.7 0C941.3 0 922.7 0 903.8 0C885 0 866 0 847.2 0C828.3 0 809.7 0 790.8 0C772 0 753 0 734.2 0C715.3 0 696.7 0 677.8 0C659 0 640 0 621.2 0C602.3 0 583.7 0 564.8 0C546 0 527 0 508.2 0C489.3 0 470.7 0 451.8 0C433 0 414 0 395.2 0C376.3 0 357.7 0 338.8 0C320 0 301 0 282.2 0C263.3 0 244.7 0 225.8 0C207 0 188 0 169.2 0C150.3 0 131.7 0 112.8 0C94 0 75 0 56.2 0C37.3 0 18.7 0 9.3 0L0 0Z" fill="#732885"></path></svg>