<svg id="visual" viewBox="0 0 960 540" width="960" height="540" xmlns="http://www.w3.org/2000/svg" xmlns:xlink="http://www.w3.org/1999/xlink" version="1.1"><rect x="0" y="0" width="960" height="540" fill="#121212"></rect><path d="M0 337L8 344C16 351 32 365 48 382.7C64 400.3 80 421.7 96 430.8C112 440 128 437 144 420C160 403 176 372 192 350.5C208 329 224 317 240 291.5C256 266 272 227 288 206.2C304 185.3 320 182.7 336 202C352 221.3 368 262.7 384 269.7C400 276.7 416 249.3 432 240.3C448 231.3 464 240.7 480 277.5C496 314.3 512 378.7 528 379C544 379.3 560 315.7 576 275.5C592 235.3 608 218.7 624 220C640 221.3 656 240.7 672 254.8C688 269 704 278 720 295.5C736 313 752 339 768 352.7C784 366.3 800 367.7 816 346.2C832 324.7 848 280.3 864 263.2C880 246 896 256 912 285C928 314 944 362 952 386L960 410L960 0L952 0C944 0 928 0 912 0C896 0 880 0 864 0C848 0 832 0 816 0C800 0 784 0 768 0C752 0 736 0 720 0C704 0 688 0 672 0C656 0 640 0 624 0C608 0 592 0 576 0C560 0 544 0 528 0C512 0 496 0 480 0C464 0 448 0 432 0C416 0 400 0 384 0C368 0 352 0 336 0C320 0 304 0 288 0C272 0 256 0 240 0C224 0 208 0 192 0C176 0 160 0 144 0C128 0 112 0 96 0C80 0 64 0 48 0C32 0 16 0 8 0L0 0Z" fill="#121212"></path><path d="M0 360L8 364.7C16 369.3 32 378.7 48 374.3C64 370 80 352 96 318.7C112 285.3 128 236.7 144 247.8C160 259 176 330 192 348C208 366 224 331 240 322.7C256 314.3 272 332.7 288 328C304 323.3 320 295.7 336 301.3C352 307 368 346 384 349.3C400 352.7 416 320.3 432 281C448 241.7 464 195.3 480 171.7C496 148 512 147 528 147.5C544 148 560 150 576 171.2C592 192.3 608 232.7 624 258.2C640 283.7 656 294.3 672 285.8C688 277.3 704 249.7 720 234.5C736 219.3 752 216.7 768 233.7C784 250.7 800 287.3 816 286.8C832 286.3 848 248.7 864 218.7C880 188.7 896 166.3 912 191.3C928 216.3 944 288.7 952 324.8L960 361L960 0L952 0C944 0 928 0 912 0C896 0 880 0 864 0C848 0 832 0 816 0C800 0 784 0 768 0C752 0 736 0 720 0C704 0 688 0 672 0C656 0 640 0 624 0C608 0 592 0 576 0C560 0 544 0 528 0C512 0 496 0 480 0C464 0 448 0 432 0C416 0 400 0 384 0C368 0 352 0 336 0C320 0 304 0 288 0C272 0 256 0 240 0C224 0 208 0 192 0C176 0 160 0 144 0C128 0 112 0 96 0C80 0 64 0 48 0C32 0 16 0 8 0L0 0Z" fill="#1e161f"></path><path d="M0 293L8 283.5C16 274 32 255 48 260.2C64 265.3 80 294.7 96 310.8C112 327 128 330 144 319.7C160 309.3 176 285.7 192 276.8C208 268 224 274 240 286.7C256 299.3 272 318.7 288 303.5C304 288.3 320 238.7 336 202.5C352 166.3 368 143.7 384 170C400 196.3 416 271.7 432 277.5C448 283.3 464 219.7 480 198.3C496 177 512 198 528 224.8C544 251.7 560 284.3 576 271.8C592 259.3 608 201.7 624 207C640 212.3 656 280.7 672 311C688 341.3 704 333.7 720 310.5C736 287.3 752 248.7 768 242.5C784 236.3 800 262.7 816 248.8C832 235 848 181 864 173.3C880 165.7 896 204.3 912 225.3C928 246.3 944 249.7 952 251.3L960 253L960 0L952 0C944 0 928 0 912 0C896 0 880 0 864 0C848 0 832 0 816 0C800 0 784 0 768 0C752 0 736 0 720 0C704 0 688 0 672 0C656 0 640 0 624 0C608 0 592 0 576 0C560 0 544 0 528 0C512 0 496 0 480 0C464 0 448 0 432 0C416 0 400 0 384 0C368 0 352 0 336 0C320 0 304 0 288 0C272 0 256 0 240 0C224 0 208 0 192 0C176 0 160 0 144 0C128 0 112 0 96 0C80 0 64 0 48 0C32 0 16 0 8 0L0 0Z" fill="#291a2c"></path><path d="M0 106L8 112.2C16 118.3 32 130.7 48 148.7C64 166.7 80 190.3 96 196.5C112 202.7 128 191.3 144 184.7C160 178 176 176 192 188.5C208 201 224 228 240 222.7C256 217.3 272 179.7 288 176.7C304 173.7 320 205.3 336 232.7C352 260 368 283 384 288.3C400 293.7 416 281.3 432 275.3C448 269.3 464 269.7 480 274.8C496 280 512 290 528 285.5C544 281 560 262 576 259.3C592 256.7 608 270.3 624 265.3C640 260.3 656 236.7 672 232.7C688 228.7 704 244.3 720 248.5C736 252.7 752 245.3 768 235.8C784 226.3 800 214.7 816 207C832 199.3 848 195.7 864 196.2C880 196.7 896 201.3 912 211.5C928 221.7 944 237.3 952 245.2L960 253L960 0L952 0C944 0 928 0 912 0C896 0 880 0 864 0C848 0 832 0 816 0C800 0 784 0 768 0C752 0 736 0 720 0C704 0 688 0 672 0C656 0 640 0 624 0C608 0 592 0 576 0C560 0 544 0 528 0C512 0 496 0 480 0C464 0 448 0 432 0C416 0 400 0 384 0C368 0 352 0 336 0C320 0 304 0 288 0C272 0 256 0 240 0C224 0 208 0 192 0C176 0 160 0 144 0C128 0 112 0 96 0C80 0 64 0 48 0C32 0 16 0 8 0L0 0Z" fill="#351d3a"></path><path d="M0 183L8 166.7C16 150.3 32 117.7 48 124.7C64 131.7 80 178.3 96 193C112 207.7 128 190.3 144 191.2C160 192 176 211 192 225.7C208 240.3 224 250.7 240 250.3C256 250 272 239 288 228.5C304 218 320 208 336 195.7C352 183.3 368 168.7 384 164.3C400 160 416 166 432 155.3C448 144.7 464 117.3 480 108.3C496 99.3 512 108.7 528 124.2C544 139.7 560 161.3 576 177.3C592 193.3 608 203.7 624 208C640 212.3 656 210.7 672 203.7C688 196.7 704 184.3 720 192.3C736 200.3 752 228.7 768 225.8C784 223 800 189 816 166.5C832 144 848 133 864 141C880 149 896 176 912 200.2C928 224.3 944 245.7 952 256.3L960 267L960 0L952 0C944 0 928 0 912 0C896 0 880 0 864 0C848 0 832 0 816 0C800 0 784 0 768 0C752 0 736 0 720 0C704 0 688 0 672 0C656 0 640 0 624 0C608 0 592 0 576 0C560 0 544 0 528 0C512 0 496 0 480 0C464 0 448 0 432 0C416 0 400 0 384 0C368 0 352 0 336 0C320 0 304 0 288 0C272 0 256 0 240 0C224 0 208 0 192 0C176 0 160 0 144 0C128 0 112 0 96 0C80 0 64 0 48 0C32 0 16 0 8 0L0 0Z" fill="#412048"></path><path d="M0 208L8 195.3C16 182.7 32 157.3 48 140.5C64 123.7 80 115.3 96 122.2C112 129 128 151 144 163.3C160 175.7 176 178.3 192 181.5C208 184.7 224 188.3 240 193.5C256 198.7 272 205.3 288 196.2C304 187 320 162 336 143.8C352 125.7 368 114.3 384 106C400 97.7 416 92.3 432 107.3C448 122.3 464 157.7 480 155.3C496 153 512 113 528 99.3C544 85.7 560 98.3 576 118.5C592 138.7 608 166.3 624 171.7C640 177 656 160 672 149.7C688 139.3 704 135.7 720 136.7C736 137.7 752 143.3 768 146.7C784 150 800 151 816 144.5C832 138 848 124 864 130.2C880 136.3 896 162.7 912 161.8C928 161 944 133 952 119L960 105L960 0L952 0C944 0 928 0 912 0C896 0 880 0 864 0C848 0 832 0 816 0C800 0 784 0 768 0C752 0 736 0 720 0C704 0 688 0 672 0C656 0 640 0 624 0C608 0 592 0 576 0C560 0 544 0 528 0C512 0 496 0 480 0C464 0 448 0 432 0C416 0 400 0 384 0C368 0 352 0 336 0C320 0 304 0 288 0C272 0 256 0 240 0C224 0 208 0 192 0C176 0 160 0 144 0C128 0 112 0 96 0C80 0 64 0 48 0C32 0 16 0 8 0L0 0Z" fill="#4d2357"></path><path d="M0 126L8 129C16 132 32 138 48 140.2C64 142.3 80 140.7 96 129.7C112 118.7 128 98.3 144 93.5C160 88.7 176 99.3 192 110.8C208 122.3 224 134.7 240 125.7C256 116.7 272 86.3 288 80.8C304 75.3 320 94.7 336 100.2C352 105.7 368 97.3 384 89.5C400 81.7 416 74.3 432 71C448 67.7 464 68.3 480 77.7C496 87 512 105 528 117.2C544 129.3 560 135.7 576 135.8C592 136 608 130 624 132.3C640 134.7 656 145.3 672 149C688 152.7 704 149.3 720 135.2C736 121 752 96 768 101C784 106 800 141 816 143.7C832 146.3 848 116.7 864 106.7C880 96.7 896 106.3 912 119.7C928 133 944 150 952 158.5L960 167L960 0L952 0C944 0 928 0 912 0C896 0 880 0 864 0C848 0 832 0 816 0C800 0 784 0 768 0C752 0 736 0 720 0C704 0 688 0 672 0C656 0 640 0 624 0C608 0 592 0 576 0C560 0 544 0 528 0C512 0 496 0 480 0C464 0 448 0 432 0C416 0 400 0 384 0C368 0 352 0 336 0C320 0 304 0 288 0C272 0 256 0 240 0C224 0 208 0 192 0C176 0 160 0 144 0C128 0 112 0 96 0C80 0 64 0 48 0C32 0 16 0 8 0L0 0Z" fill="#5a2566"></path><path d="M0 47L8 55.2C16 63.3 32 79.7 48 79.8C64 80 80 64 96 69.8C112 75.7 128 103.3 144 117C160 130.7 176 130.3 192 127.8C208 125.3 224 120.7 240 104.2C256 87.7 272 59.3 288 47.3C304 35.3 320 39.7 336 50.5C352 61.3 368 78.7 384 82.3C400 86 416 76 432 72.5C448 69 464 72 480 71.8C496 71.7 512 68.3 528 66.3C544 64.3 560 63.7 576 72.8C592 82 608 101 624 107C640 113 656 106 672 105.3C688 104.7 704 110.3 720 103.5C736 96.7 752 77.3 768 74.3C784 71.3 800 84.7 816 92.8C832 101 848 104 864 108.7C880 113.3 896 119.7 912 108.5C928 97.3 944 68.7 952 54.3L960 40L960 0L952 0C944 0 928 0 912 0C896 0 880 0 864 0C848 0 832 0 816 0C800 0 784 0 768 0C752 0 736 0 720 0C704 0 688 0 672 0C656 0 640 0 624 0C608 0 592 0 576 0C560 0 544 0 528 0C512 0 496 0 480 0C464 0 448 0 432 0C416 0 400 0 384 0C368 0 352 0 336 0C320 0 304 0 288 0C272 0 256 0 240 0C224 0 208 0 192 0C176 0 160 0 144 0C128 0 112 0 96 0C80 0 64 0 48 0C32 0 16 0 8 0L0 0Z" fill="#662775"></path><path d="M0 19L8 18.3C16 17.7 32 16.3 48 23.7C64 31 80 47 96 58.2C112 69.3 128 75.7 144 74.3C160 73 176 64 192 55.7C208 47.3 224 39.7 240 36.8C256 34 272 36 288 41C304 46 320 54 336 58.8C352 63.7 368 65.3 384 59.3C400 53.3 416 39.7 432 39.7C448 39.7 464 53.3 480 54C496 54.7 512 42.3 528 45.5C544 48.7 560 67.3 576 69.3C592 71.3 608 56.7 624 48.3C640 40 656 38 672 43.7C688 49.3 704 62.7 720 58.7C736 54.7 752 33.3 768 23.2C784 13 800 14 816 13.8C832 13.7 848 12.3 864 22.8C880 33.3 896 55.7 912 61.3C928 67 944 56 952 50.5L960 45L960 0L952 0C944 0 928 0 912 0C896 0 880 0 864 0C848 0 832 0 816 0C800 0 784 0 768 0C752 0 736 0 720 0C704 0 688 0 672 0C656 0 640 0 624 0C608 0 592 0 576 0C560 0 544 0 528 0C512 0 496 0 480 0C464 0 448 0 432 0C416 0 400 0 384 0C368 0 352 0 336 0C320 0 304 0 288 0C272 0 256 0 240 0C224 0 208 0 192 0C176 0 160 0 144 0C128 0 112 0 96 0C80 0 64 0 48 0C32 0 16 0 8 0L0 0Z" fill="#732885"></path></svg>